<svg viewBox="89.21250000000009 234.67647058823513 1932.9374999999998 1722.941176470589" fill="none" xmlns="http://www.w3.org/2000/svg" xmlns:xlink="http://www.w3.org/1999/xlink" overflow="visible" width="1932.9374999999998px" height="1722.941176470589px"><g id="Master/Spot Illustrations/Planning"><path id="Background" opacity="0.5" fill-rule="evenodd" clip-rule="evenodd" d="M1992 941C1992 1325.39 1680.39 1637 1296 1637C911.61 1637 600 1325.39 600 941C600 556.611 911.61 245 1296 245C1680.39 245 1992 556.611 1992 941" fill="#EBF3FF"/><g id="Calendar"><path id="Fill 3" fill-rule="evenodd" clip-rule="evenodd" d="M1957.82 448.833L1831.76 1163.75C1828.95 1179.74 1813.72 1192.69 1797.73 1192.69H844.82C828.836 1192.69 818.172 1179.74 820.991 1163.75L947.05 448.833C949.868 432.85 965.106 419.86 981.09 419.86H1934C1949.99 419.86 1960.64 432.85 1957.82 448.833" fill="#EDE8D6"/><path id="Fill 5" fill-rule="evenodd" clip-rule="evenodd" d="M1957.82 448.833L1929.72 608.25H918.941L947.05 448.833C949.868 432.85 965.106 419.86 981.09 419.86H1934C1949.99 419.86 1960.64 432.85 1957.82 448.833" fill="#F73132"/><path id="Fill 7" fill-rule="evenodd" clip-rule="evenodd" d="M1074.43 854.003H1008.22C979.173 854.003 959.776 830.454 964.898 801.405L976.573 735.194C981.695 706.146 1009.4 682.598 1038.45 682.598H1104.66C1133.7 682.598 1153.1 706.146 1147.98 735.194L1136.3 801.405C1131.18 830.454 1103.48 854.003 1074.43 854.003" fill="white"/><path id="Fill 9" fill-rule="evenodd" clip-rule="evenodd" d="M1199.19 1089.4H1132.98C1103.93 1089.4 1084.53 1065.85 1089.65 1036.8L1101.33 970.59C1106.45 941.543 1134.15 917.994 1163.2 917.994H1229.41C1258.46 917.994 1277.86 941.543 1272.73 970.59L1261.06 1036.8C1255.94 1065.85 1228.24 1089.4 1199.19 1089.4" fill="white"/><path id="Fill 11" fill-rule="evenodd" clip-rule="evenodd" d="M1540.86 1089.4H1474.65C1445.6 1089.4 1426.2 1065.85 1431.32 1036.8L1443 970.59C1448.12 941.543 1475.82 917.994 1504.87 917.994H1571.08C1600.13 917.994 1619.52 941.543 1614.4 970.59L1602.73 1036.8C1597.61 1065.85 1569.9 1089.4 1540.86 1089.4" fill="#21211d"/><path id="Fill 13" fill-rule="evenodd" clip-rule="evenodd" d="M1410.96 854.003H1344.75C1315.7 854.003 1296.3 830.454 1301.42 801.405L1313.1 735.194C1318.22 706.146 1345.92 682.598 1374.97 682.598H1441.18C1470.23 682.598 1489.63 706.146 1484.5 735.194L1472.83 801.405C1467.71 830.454 1440.01 854.003 1410.96 854.003" fill="white"/><path id="Fill 15" fill-rule="evenodd" clip-rule="evenodd" d="M1753.77 854.003H1687.56C1658.51 854.003 1639.11 830.454 1644.23 801.405L1655.91 735.194C1661.03 706.146 1688.73 682.598 1717.78 682.598H1783.99C1813.04 682.598 1832.44 706.146 1827.31 735.194L1815.64 801.405C1810.52 830.454 1782.82 854.003 1753.77 854.003" fill="white"/><path id="Fill 17" fill-rule="evenodd" clip-rule="evenodd" d="M1167.7 516.835V506.347C1215.86 506.347 1261.95 467.141 1270.44 418.95C1274.54 395.735 1269.32 374.044 1255.75 357.871C1242.49 342.074 1222.71 333.375 1200.05 333.375C1151.9 333.375 1105.81 372.581 1097.31 420.772L1086.98 418.951C1096.32 365.981 1147.04 322.887 1200.05 322.887C1225.87 322.887 1248.5 332.917 1263.78 351.129C1279.38 369.718 1285.41 394.451 1280.77 420.772C1271.43 473.741 1220.71 516.835 1167.7 516.835" fill="#21211D"/><path id="Fill 19" fill-rule="evenodd" clip-rule="evenodd" d="M1712.68 516.835V506.347C1760.83 506.347 1806.92 467.141 1815.42 418.951C1819.51 395.736 1814.29 374.044 1800.72 357.871C1787.46 342.074 1767.68 333.375 1745.02 333.375C1696.87 333.375 1650.78 372.581 1642.28 420.772L1631.96 418.95C1641.3 365.981 1692.02 322.887 1745.02 322.887C1770.84 322.887 1793.47 332.917 1808.75 351.129C1824.35 369.719 1830.39 394.451 1825.74 420.772C1816.4 473.741 1765.68 516.835 1712.68 516.835" fill="#21211D"/><path id="Fill 21" fill-rule="evenodd" clip-rule="evenodd" d="M1470.65 1139.57C1433.89 1139.57 1401.91 1127.39 1382.22 1105.71C1352.03 1072.46 1351.1 1015.01 1380 969.117C1407.38 925.657 1459.49 894.902 1509.68 892.589C1512.6 892.444 1515.03 894.692 1515.16 897.586C1515.29 900.478 1513.06 902.932 1510.16 903.065C1463.25 905.228 1414.51 934.019 1388.88 974.707C1376.19 994.847 1369.3 1018.44 1369.46 1041.13C1369.63 1063.83 1376.92 1084.26 1389.99 1098.66C1408.7 1119.27 1440.26 1130.32 1476.54 1128.97C1524.96 1127.17 1575.05 1104.18 1610.53 1067.46C1646.86 1029.86 1666.42 978.761 1661.57 934.106C1656.66 888.883 1626.3 851.885 1584.22 839.85C1581.44 839.053 1579.82 836.151 1580.62 833.366C1581.42 830.582 1584.32 828.97 1587.1 829.766C1633.3 842.979 1666.62 883.49 1671.99 932.973C1677.17 980.643 1656.51 1034.97 1618.07 1074.75C1580.76 1113.37 1527.99 1137.56 1476.93 1139.46C1474.83 1139.53 1472.73 1139.57 1470.65 1139.57" fill="#F73132"/></g><g id="Big Plants" transform="translate(1544 1169) scale(1 1)"><g id="Big Plants/Plant 3"><g id="Group 49"><g id="Group 113"><path id="Fill 75" fill-rule="evenodd" clip-rule="evenodd" d="M239.401 550.12C238.709 550.12 238.061 549.687 237.822 548.995L164.158 336.35C163.856 335.478 164.318 334.527 165.19 334.224C166.062 333.923 167.014 334.384 167.316 335.257L240.98 547.902C241.282 548.774 240.82 549.725 239.948 550.028C239.767 550.09 239.582 550.12 239.401 550.12" fill="#21211D"/><path id="Fill 77" fill-rule="evenodd" clip-rule="evenodd" d="M268.553 594.527C267.63 594.527 266.882 593.778 266.882 592.856V124.263C266.882 123.34 267.63 122.591 268.553 122.591C269.476 122.591 270.224 123.34 270.224 124.263V592.856C270.224 593.778 269.476 594.527 268.553 594.527" fill="#21211D"/><path id="Fill 79" fill-rule="evenodd" clip-rule="evenodd" d="M285.31 621.561C285.142 621.561 284.971 621.536 284.802 621.482C283.923 621.202 283.437 620.262 283.717 619.382L375.812 330.296C376.092 329.417 377.032 328.93 377.912 329.211C378.791 329.492 379.277 330.432 378.997 331.311L286.902 620.397C286.675 621.107 286.018 621.561 285.31 621.561" fill="#21211D"/><path id="Fill 81" fill-rule="evenodd" clip-rule="evenodd" d="M290.51 759.677H249.118C211.838 759.677 179.936 732.917 173.451 696.205L138.142 496.332H401.487L366.178 696.205C359.692 732.917 327.79 759.677 290.51 759.677" fill="#4965CC"/><path id="Fill 83" fill-rule="evenodd" clip-rule="evenodd" d="M414.887 457.554C432.006 414.006 453.259 368.582 454.314 320.963C454.606 307.781 453.023 294.117 446.387 282.723C431.588 257.316 396.963 252.973 373.62 268.913C362.097 276.78 353.802 289.515 353.595 301.219C353.627 299.387 343.991 295.808 342.452 295.248C338.241 293.715 333.803 292.804 329.331 292.525C320.878 291.998 312.171 293.703 304.802 297.948C290.369 306.26 280.852 322.798 281.436 339.507C282.072 357.675 293.311 373.727 305.757 386.978C336.034 419.213 375.762 438.327 414.887 457.554" fill="#F1A596"/><path id="Fill 85" fill-rule="evenodd" clip-rule="evenodd" d="M112.849 470.794C145.953 445.315 183.084 420.298 205.759 384.325C212.036 374.367 217.099 363.179 217.25 351.408C217.588 325.161 193.073 305.936 167.882 307.419C155.447 308.151 143.248 314.092 137.715 322.958C138.582 321.569 132.847 314.405 131.926 313.269C129.406 310.161 126.427 307.426 123.131 305.159C116.902 300.875 109.453 298.181 101.861 298.046C86.9941 297.782 72.1141 306.073 64.8881 319.134C57.0311 333.336 58.2651 350.786 61.7091 366.646C70.0871 405.229 91.7241 438.106 112.849 470.794" fill="#F1A596"/><path id="Fill 87" fill-rule="evenodd" clip-rule="evenodd" d="M229.52 295.944C276.684 267.802 329.033 240.888 364.205 197.432C373.941 185.402 382.282 171.579 384.302 156.235C388.805 122.018 359.774 93.1253 326.655 91.1633C310.308 90.1943 293.462 96.0623 284.866 106.78C286.212 105.101 279.833 94.8603 278.807 93.2353C275.999 88.7873 272.532 84.7563 268.58 81.2853C261.11 74.7273 251.801 70.0583 241.911 68.7073C222.542 66.0613 201.831 74.5833 190.376 90.5173C177.92 107.842 176.83 130.816 178.871 152.055C183.837 203.726 206.998 249.998 229.52 295.944" fill="#F1A596"/><path id="Fill 89" fill-rule="evenodd" clip-rule="evenodd" d="M229.521 297.616C229.366 297.616 229.208 297.595 229.051 297.549C228.165 297.289 227.657 296.361 227.916 295.475L283.262 106.311C283.521 105.426 284.448 104.916 285.335 105.177C286.221 105.436 286.729 106.364 286.47 107.25L231.124 296.414C230.911 297.143 230.244 297.616 229.521 297.616" fill="#21211D"/><path id="Fill 91" fill-rule="evenodd" clip-rule="evenodd" d="M112.851 472.466C112.759 472.466 112.666 472.458 112.572 472.443C111.662 472.29 111.048 471.427 111.201 470.517L136.067 322.681C136.22 321.77 137.081 321.156 137.992 321.31C138.903 321.463 139.516 322.325 139.363 323.236L114.497 471.072C114.36 471.888 113.652 472.466 112.851 472.466" fill="#21211D"/><path id="Fill 93" fill-rule="evenodd" clip-rule="evenodd" d="M414.887 459.226C414.22 459.226 413.589 458.824 413.331 458.164L352.038 301.83C351.701 300.97 352.125 300.001 352.984 299.664C353.844 299.328 354.814 299.75 355.15 300.61L416.442 456.945C416.779 457.804 416.356 458.773 415.496 459.11C415.296 459.189 415.09 459.226 414.887 459.226" fill="#21211D"/><path id="Fill 95" fill-rule="evenodd" clip-rule="evenodd" d="M424.012 337.475C423.944 337.475 423.876 337.471 423.807 337.462L364.089 330.162C363.173 330.05 362.521 329.217 362.633 328.301C362.745 327.384 363.579 326.733 364.494 326.845L424.213 334.145C425.129 334.257 425.781 335.09 425.668 336.006C425.565 336.853 424.844 337.475 424.012 337.475" fill="#21211D"/><path id="Fill 97" fill-rule="evenodd" clip-rule="evenodd" d="M346.961 396.561C346.594 396.561 346.225 396.441 345.917 396.194C345.197 395.617 345.081 394.565 345.658 393.845L374.772 357.515C375.349 356.794 376.401 356.679 377.121 357.256C377.841 357.833 377.957 358.885 377.38 359.605L348.266 395.935C347.936 396.347 347.451 396.561 346.961 396.561" fill="#21211D"/><path id="Fill 99" fill-rule="evenodd" clip-rule="evenodd" d="M419.546 415.171C419.471 415.171 419.395 415.166 419.318 415.155L396.152 412.002C395.238 411.878 394.598 411.035 394.722 410.121C394.846 409.206 395.691 408.564 396.603 408.691L419.769 411.844C420.684 411.968 421.324 412.811 421.2 413.725C421.086 414.563 420.369 415.171 419.546 415.171" fill="#21211D"/><path id="Fill 101" fill-rule="evenodd" clip-rule="evenodd" d="M208.567 147.243C207.784 147.243 207.085 146.69 206.929 145.893C206.751 144.987 207.342 144.109 208.248 143.931L277.142 130.444C278.05 130.269 278.926 130.858 279.103 131.763C279.281 132.669 278.69 133.547 277.784 133.724L208.89 147.212C208.781 147.233 208.673 147.243 208.567 147.243" fill="#21211D"/><path id="Fill 103" fill-rule="evenodd" clip-rule="evenodd" d="M303.452 213.647C303.028 213.647 302.604 213.486 302.278 213.165L263.976 175.356C263.32 174.708 263.313 173.649 263.961 172.993C264.61 172.335 265.668 172.329 266.325 172.977L304.626 210.786C305.283 211.435 305.29 212.493 304.641 213.149C304.314 213.481 303.883 213.647 303.452 213.647" fill="#21211D"/><path id="Fill 105" fill-rule="evenodd" clip-rule="evenodd" d="M217.254 237.942C216.598 237.942 215.975 237.553 215.709 236.909C215.356 236.056 215.762 235.079 216.615 234.726L250.431 220.747C251.283 220.394 252.261 220.8 252.613 221.653C252.966 222.506 252.56 223.484 251.707 223.836L217.892 237.815C217.683 237.901 217.467 237.942 217.254 237.942" fill="#21211D"/><path id="Fill 107" fill-rule="evenodd" clip-rule="evenodd" d="M178.284 373.698C177.993 373.698 177.699 373.622 177.431 373.463L133.049 347.051C132.256 346.579 131.996 345.553 132.468 344.761C132.94 343.967 133.966 343.706 134.759 344.179L179.14 370.591C179.933 371.063 180.194 372.088 179.721 372.881C179.409 373.406 178.854 373.698 178.284 373.698" fill="#21211D"/><path id="Fill 109" fill-rule="evenodd" clip-rule="evenodd" d="M82.4276 391.708C81.6676 391.708 80.9806 391.187 80.8016 390.415C80.5926 389.516 81.1516 388.618 82.0506 388.409L127.846 377.759C128.744 377.55 129.643 378.109 129.852 379.009C130.061 379.908 129.502 380.806 128.603 381.015L82.8076 391.665C82.6806 391.694 82.5526 391.708 82.4276 391.708" fill="#21211D"/><path id="Fill 111" fill-rule="evenodd" clip-rule="evenodd" d="M138.14 432.38C137.833 432.38 137.522 432.296 137.244 432.118L120.489 421.445C119.711 420.949 119.482 419.916 119.977 419.137C120.473 418.359 121.506 418.13 122.285 418.626L139.039 429.299C139.818 429.795 140.047 430.828 139.551 431.607C139.232 432.107 138.692 432.38 138.14 432.38" fill="#21211D"/></g><g id="Group 116"><mask id="mask0c3f511dd-6f59-42a5-9c20-c99487adbae9" style="mask-type:alpha" maskUnits="userSpaceOnUse" x="138" y="496" width="264" height="264" fill="#ffffff"><path id="Clip 115" fill-rule="evenodd" clip-rule="evenodd" d="M138.141 496.332L173.45 696.204C179.935 732.917 211.838 759.677 249.118 759.677V759.677H290.509C327.79 759.677 359.692 732.917 366.177 696.204V696.204L401.487 496.332" fill="#ffffff"/></mask><g mask="url(#mask0c3f511dd-6f59-42a5-9c20-c99487adbae9)"><path id="Fill 114" fill-rule="evenodd" clip-rule="evenodd" d="M201.686 822C198.251 822 194.777 821.277 191.335 819.596C181.951 815.013 176.093 803.238 177.09 790.963C178.002 779.727 183.706 769.548 189.165 761.072C216.743 718.253 257.637 685.979 297.185 654.766C334.598 625.238 373.285 594.706 400.475 555.366C403.498 550.992 406.525 546.282 407.416 541.037C408.178 536.553 407.038 530.805 402.775 528.073C399.265 525.823 394.471 526.135 389.813 526.807C363.402 530.618 336.601 541.262 310.154 558.443C288.323 572.625 266.398 591.306 243.127 615.554C230.684 628.519 218.499 642.232 206.715 655.494C180.022 685.536 152.42 716.6 119.821 741.242C107.613 750.471 96.8196 752.637 89.4276 747.338C79.2976 740.078 82.3976 724.99 88.6756 713.291C113.847 666.392 154.11 629.964 193.048 594.736C222.008 568.535 251.954 541.442 275.614 510.163C279.914 504.479 284.235 498.339 285.709 491.29C286.949 485.359 285.648 477.186 279.862 473.255C272.339 468.144 261.508 472.371 254.015 475.995C178.136 512.698 115.572 571.006 55.0676 627.393C54.2596 628.147 52.9936 628.102 52.2406 627.294C51.4876 626.486 51.5316 625.22 52.3406 624.467C113.062 567.877 175.851 509.36 252.274 472.394C260.658 468.338 272.874 463.672 282.11 469.946C289.458 474.939 291.179 484.674 289.624 492.108C287.981 499.969 283.177 506.795 278.804 512.576C254.917 544.156 224.829 571.377 195.732 597.702C157.046 632.702 117.044 668.894 92.2006 715.182C86.9756 724.917 83.7246 738.33 91.7576 744.087C99.6496 749.744 111.217 742.733 117.409 738.052C149.692 713.647 177.161 682.733 203.725 652.837C215.534 639.547 227.745 625.804 240.241 612.784C263.728 588.312 285.883 569.44 307.974 555.088C334.911 537.589 362.253 526.742 389.242 522.848C394.666 522.065 400.321 521.748 404.933 524.705C410.736 528.424 412.342 535.924 411.359 541.707C410.332 547.759 406.901 553.104 403.766 557.64C376.234 597.474 337.308 628.196 299.663 657.906C260.373 688.915 219.745 720.98 192.528 763.238C187.337 771.297 181.917 780.932 181.077 791.287C180.368 800.018 183.825 811.476 193.091 816.002C198.265 818.529 212.534 821.973 233.216 799.403C252.918 777.9 269.901 753.467 286.325 729.838C300.221 709.846 314.591 689.173 330.596 670.269C354.998 641.446 405.308 593.187 468.474 593.187C468.652 593.187 468.828 593.187 469.006 593.188C469.613 593.19 470.186 593.469 470.564 593.944C470.941 594.42 471.082 595.041 470.947 595.633C464.406 624.286 443.654 646.41 423.586 667.806C419.446 672.219 415.166 676.782 411.121 681.293C386.502 708.749 366.311 739.705 351.109 773.302C346.027 784.533 345.501 792.459 349.502 797.534C356.559 806.483 372.133 800.53 378.502 797.556C413.7 781.113 445.789 759.167 473.877 732.328C474.675 731.565 475.941 731.593 476.705 732.392C477.468 733.191 477.439 734.457 476.641 735.22C448.237 762.361 415.788 784.553 380.195 801.18C372.963 804.557 355.189 811.206 346.361 800.011C344.518 797.673 338.909 790.559 347.465 771.652C362.836 737.683 383.251 706.383 408.143 678.623C412.218 674.079 416.514 669.499 420.668 665.069C439.783 644.69 459.529 623.639 466.445 597.204C405.834 598.226 357.34 644.871 333.648 672.854C317.767 691.612 303.452 712.206 289.61 732.122C273.11 755.859 256.049 780.404 236.165 802.105C228.704 810.247 215.531 821.999 201.686 822" fill="#EDC829"/></g></g></g></g></g><g id="Clock" transform="translate(354 353) scale(1 1)"><g id="Clock/Blue Clock"><g id="Clock"><path id="Fill 907" fill-rule="evenodd" clip-rule="evenodd" d="M254.718 127.975C254.718 198.267 197.735 255.251 127.442 255.251C57.15 255.251 0.166016 198.267 0.166016 127.975C0.166016 57.6816 57.15 0.6986 127.442 0.6986C197.735 0.6986 254.718 57.6816 254.718 127.975" fill="#B6CCFC"/><path id="Fill 909" fill-rule="evenodd" clip-rule="evenodd" d="M210.642 127.975C210.642 173.925 173.392 211.175 127.442 211.175C81.4922 211.175 44.2422 173.925 44.2422 127.975C44.2422 82.0246 81.4922 44.7746 127.442 44.7746C173.392 44.7746 210.642 82.0246 210.642 127.975" fill="#2E4C9E"/><path id="Path" opacity="0.275414" fill-rule="evenodd" clip-rule="evenodd" d="M181.304 12.6236L14.3178 186.358C9.99654 178.003 6.5739 169.107 4.17773 159.799L156.352 3.99608C165.045 6.01504 173.396 8.92467 181.304 12.6236Z" fill="#F5F9FF"/><path id="Path_2" opacity="0.275414" fill-rule="evenodd" clip-rule="evenodd" d="M237.127 63.3712L67.2285 240.134C51.1134 231.464 37.0812 219.423 26.0762 204.954L193.428 19.1175C211.39 30.0289 226.437 45.2609 237.127 63.3712Z" fill="#F5F9FF"/><path id="Fill 911" fill-rule="evenodd" clip-rule="evenodd" d="M158.356 129.556H127.442C126.552 129.556 125.831 128.834 125.831 127.945V83.9467C125.831 83.0567 126.552 82.3347 127.442 82.3347C128.332 82.3347 129.053 83.0567 129.053 83.9467V126.333H158.356C159.246 126.333 159.967 127.055 159.967 127.945C159.967 128.834 159.246 129.556 158.356 129.556" fill="#21211D"/><path id="Fill 913" fill-rule="evenodd" clip-rule="evenodd" d="M131.432 65.3359C131.432 63.1319 129.645 61.3449 127.442 61.3449C125.238 61.3449 123.452 63.1319 123.452 65.3359C123.452 67.5389 125.238 69.3259 127.442 69.3259C129.645 69.3259 131.432 67.5389 131.432 65.3359" fill="#21211D"/><path id="Fill 915" fill-rule="evenodd" clip-rule="evenodd" d="M131.432 189.889C131.432 187.685 129.645 185.899 127.442 185.899C125.238 185.899 123.452 187.685 123.452 189.889C123.452 192.093 125.238 193.879 127.442 193.879C129.645 193.879 131.432 192.093 131.432 189.889" fill="#21211D"/><path id="Fill 917" fill-rule="evenodd" clip-rule="evenodd" d="M189.719 131.602C191.923 131.602 193.71 129.816 193.71 127.612C193.71 125.408 191.923 123.622 189.719 123.622C187.515 123.622 185.729 125.408 185.729 127.612C185.729 129.816 187.515 131.602 189.719 131.602" fill="#21211D"/><path id="Fill 919" fill-rule="evenodd" clip-rule="evenodd" d="M65.1658 131.602C67.3698 131.602 69.1558 129.816 69.1558 127.612C69.1558 125.408 67.3698 123.622 65.1658 123.622C62.9618 123.622 61.1748 125.408 61.1748 127.612C61.1748 129.816 62.9618 131.602 65.1658 131.602" fill="#21211D"/><path id="Fill 921" fill-rule="evenodd" clip-rule="evenodd" d="M174.3 86.3975C175.858 84.8385 175.858 82.3125 174.3 80.7535C172.741 79.1965 170.215 79.1965 168.656 80.7535C167.098 82.3125 167.098 84.8385 168.656 86.3975C170.215 87.9565 172.741 87.9565 174.3 86.3975" fill="#21211D"/><path id="Fill 923" fill-rule="evenodd" clip-rule="evenodd" d="M86.2275 174.47C87.7855 172.911 87.7855 170.385 86.2275 168.826C84.6685 167.269 82.1425 167.269 80.5835 168.826C79.0255 170.385 79.0255 172.911 80.5835 174.47C82.1425 176.029 84.6685 176.029 86.2275 174.47" fill="#21211D"/><path id="Fill 925" fill-rule="evenodd" clip-rule="evenodd" d="M86.2275 80.7539C84.6685 79.1959 82.1425 79.1959 80.5835 80.7539C79.0255 82.3129 79.0255 84.8389 80.5835 86.3979C82.1425 87.9559 84.6685 87.9559 86.2275 86.3979C87.7855 84.8389 87.7855 82.3129 86.2275 80.7539" fill="#21211D"/><path id="Fill 927" fill-rule="evenodd" clip-rule="evenodd" d="M174.3 168.826C172.741 167.268 170.215 167.268 168.656 168.826C167.098 170.385 167.098 172.911 168.656 174.47C170.215 176.028 172.741 176.028 174.3 174.47C175.858 172.911 175.858 170.385 174.3 168.826" fill="#21211D"/></g></g></g><g id="Master/Characters/Standing" transform="translate(0 348) scale(1 1)"><g id="Master/Characters/Standing"><g id="Lower Body Standing" transform="translate(99 605) scale(1 1)"><g id="Lower Body Standing/Jumping"><rect id="Rectangle" x="530" y="100" width="296" height="37" fill="#2E4C9E"/><g id="Group 89"><path id="Fill 1" fill-rule="evenodd" clip-rule="evenodd" d="M763.32 446.053C763.301 445.973 763.291 445.883 763.281 445.803C763.291 445.853 763.311 445.893 763.32 445.943C763.33 446.033 763.34 446.083 763.34 446.113C763.33 446.093 763.32 446.063 763.32 446.053M947.518 428.062C947.323 425.673 947.127 423.375 946.795 420.706L946.551 418.767L946.248 416.668L945.926 414.549L945.75 413.51L945.613 412.75L945.046 409.691C944.851 408.702 944.646 407.593 944.46 406.753C944.069 404.994 943.669 403.135 943.268 401.446L942.067 396.648L940.865 392.23C939.253 386.563 937.631 381.426 936.019 376.668C934.427 371.89 932.815 367.353 931.203 363.025C927.969 354.329 924.745 346.173 921.492 338.257C918.219 330.361 914.956 322.675 911.663 315.119C905.069 300.016 898.435 285.354 891.723 270.861C885.041 256.368 878.271 242.055 871.51 227.813C857.95 199.317 844.282 171.121 830.428 142.715L825.651 133H530.265C530.011 135.349 529.757 137.688 529.483 140.036C528.623 147.583 527.715 155.129 526.718 162.665L525.233 173.959L523.621 185.234C519.254 215.279 514.164 245.124 508.205 274.449C502.245 303.754 495.494 332.67 487.708 360.086C483.81 373.759 479.668 387.083 475.271 399.347C474.929 400.306 474.587 401.266 474.245 402.205C474.236 402.205 474.226 402.195 474.216 402.195C468.442 399.936 462.434 397.478 456.357 394.789C444.174 389.452 431.679 383.365 419.125 376.878C394.007 363.884 368.782 349.112 343.996 333.3C331.588 325.394 319.318 317.138 307.203 308.662L298.166 302.225L289.237 295.669C286.286 293.47 283.365 291.231 280.473 289.012L276.194 285.654L274.133 283.974L273.146 283.155C272.834 282.895 272.482 282.605 272.345 282.445L161 481.615L184.144 491.241L206.478 500.636L250.891 519.556L273.166 529.032L295.568 538.467C310.554 544.764 325.678 550.991 341.065 557.168C356.472 563.345 372.142 569.401 388.497 575.299C396.694 578.217 405.027 581.146 413.722 583.924C422.417 586.753 431.425 589.451 441.107 592.03C450.827 594.599 461.115 597.008 473.356 598.967C479.462 599.936 486.174 600.756 493.882 601.216C497.82 601.425 501.903 601.565 506.563 601.485C511.214 601.395 516.275 601.116 522.048 600.406C527.813 599.676 534.417 598.507 542.057 596.268L543.454 595.858L544.978 595.368L548.006 594.349L549.501 593.819L551.543 593.04C552.901 592.51 554.249 591.95 555.597 591.37L557.6 590.481L559.398 589.631C560.58 589.052 561.762 588.452 562.935 587.842L564.683 586.913L566.266 586.023C567.292 585.433 568.318 584.824 569.334 584.204C577.286 579.317 583.138 574.539 588.013 570.131C592.81 565.753 596.503 561.775 599.825 557.967C601.359 556.158 602.971 554.249 604.28 552.56C604.954 551.7 605.677 550.791 606.302 549.961L608.149 547.462C608.784 546.613 609.34 545.833 609.897 545.044L611.558 542.655C612.574 541.146 613.639 539.576 614.587 538.107C618.407 532.2 621.533 526.763 624.337 521.595C629.896 511.261 634.243 501.915 638.2 492.87C642.088 483.854 645.576 475.189 648.8 466.693C655.238 449.711 660.817 433.37 666.073 417.208C676.497 384.924 685.671 353.43 694.552 322.055C695.861 317.398 697.17 312.75 698.469 308.112C700.296 311.351 702.123 314.599 703.931 317.857C711.004 330.531 717.803 343.285 724.369 356.018C730.895 368.772 737.177 381.506 742.951 394.059C745.833 400.336 748.617 406.543 751.187 412.63C753.775 418.707 756.169 424.634 758.211 430.151C759.247 432.93 760.165 435.539 760.986 437.957C761.581 439.746 762.08 441.376 762.471 442.755C762.451 443.035 762.422 443.345 762.383 443.664C762.197 445.314 761.904 447.433 761.523 449.771C760.771 454.479 759.647 460.056 758.289 465.913C755.573 477.687 751.939 490.571 747.884 503.624C739.736 529.831 729.781 556.868 718.986 583.774C713.563 597.228 707.917 610.701 702.035 624.114C696.154 637.537 690.028 650.901 683.746 664.224C677.425 677.527 670.948 690.781 664.188 703.884C660.846 710.451 657.388 716.958 653.91 723.424C652.151 726.643 650.412 729.871 648.624 733.05L645.948 737.777L644.599 740.086C644.16 740.826 643.7 741.635 643.339 742.185L850.71 832L857.217 808.612L863.694 785.873C868.022 770.761 872.448 755.718 876.864 740.656L890.17 695.428L903.496 649.941C912.347 619.426 921.072 588.692 929.229 556.398C933.303 540.196 937.201 523.624 940.699 505.663C942.428 496.638 944.06 487.273 945.437 476.928C946.121 471.74 946.736 466.303 947.205 460.376C947.674 454.409 948.026 448.002 947.997 440.486C947.977 436.688 947.85 432.59 947.518 428.062" fill="#2E4C9E"/><path id="Fill 3" fill-rule="evenodd" clip-rule="evenodd" d="M851.067 831.331C845.453 846.433 815.634 845.922 776.712 835.261C763.331 831.614 748.875 826.741 733.946 820.9C706.174 810.037 682.718 796.079 666.596 782.242C648.859 767.032 639.978 751.984 643.926 741.35C648.23 729.788 666.779 725.951 692.714 729.007C712.327 731.309 736.162 737.568 761.271 747.394C768.014 750.032 774.508 752.913 780.7 755.982C827.992 779.389 857.745 813.389 851.067 831.331" fill="#21211D"/><path id="Fill 5" fill-rule="evenodd" clip-rule="evenodd" d="M280.35 323.691C280.271 324.148 280.179 324.618 280.099 325.09C275.989 346.913 265.206 374.064 247.736 400.987C245.079 405.077 242.423 409.087 239.78 412.988C239.661 413.163 239.543 413.338 239.424 413.513C207.694 460.214 177.248 491.819 160.874 480.8C147.804 472.014 147.329 438.512 161.732 400.193C161.812 399.992 161.878 399.79 161.957 399.587C167.138 385.918 174.207 371.629 183.286 357.65C200.757 330.701 218.874 308.486 234.838 294.642C235.168 294.346 235.512 294.05 235.843 293.768C251.093 280.757 264.281 275.55 272.91 281.362C281.539 287.161 284.037 302.916 280.35 323.691" fill="#21211D"/><path id="Fill 7" fill-rule="evenodd" clip-rule="evenodd" d="M827.712 987L618 879.11L659.713 794.452L665.732 782.231L672.95 767.588L691.956 729C711.647 731.301 735.579 737.559 760.789 747.385C767.559 750.024 774.079 752.903 780.295 755.972C781.099 756.483 781.876 757.022 782.654 757.574C778.347 776.686 774.539 797.885 774.935 817.764C774.961 819.244 775.014 820.711 775.093 822.178C775.331 826.646 775.726 830.994 776.292 835.247C776.818 839.285 777.49 843.242 778.307 847.131C781.507 862.502 786.961 876.943 794.64 891.803C804.373 910.632 815.41 929.152 821.048 949.826C824.248 961.589 829.254 974.443 827.712 987" fill="white"/><path id="Fill 9" fill-rule="evenodd" clip-rule="evenodd" d="M698 307.432L712.766 239.623C712.974 238.667 714.358 238.867 714.3 239.843C712.903 263.438 735.103 346.09 740 386L698 307.432Z" fill="#21211D"/><path id="Fill 11" fill-rule="evenodd" clip-rule="evenodd" d="M475 402.297C475 402.297 491.784 410.765 511.969 418.884C513.55 419.519 514.767 417.383 513.422 416.329C501.563 407.036 483.205 389.429 484.744 372L475 402.297Z" fill="#21211D"/><path id="Fill 13" fill-rule="evenodd" clip-rule="evenodd" d="M498.299 408C498.124 408 497.946 407.963 497.776 407.885C497.119 407.587 496.821 406.795 497.11 406.116C542.209 300.379 562.213 133.85 562.41 132.18C562.496 131.444 563.155 130.922 563.857 131.01C564.569 131.1 565.077 131.769 564.99 132.505C564.792 134.178 544.744 301.095 499.489 407.198C499.274 407.7 498.799 408 498.299 408" fill="#21211D"/><path id="Fill 15" fill-rule="evenodd" clip-rule="evenodd" d="M222.317 506C221.99 506 221.662 505.877 221.408 505.629C220.882 505.117 220.862 504.267 221.365 503.731C269.427 452.458 292.158 403.371 302.764 371.221C314.234 336.452 314.366 313.569 314.366 313.341C314.366 312.601 314.955 312 315.683 312C316.41 312 317 312.601 317 313.341C317 313.573 316.867 336.896 305.261 372.076C294.57 404.484 271.667 453.954 223.269 505.585C223.011 505.861 222.664 506 222.317 506" fill="#21211D"/><path id="Fill 17" fill-rule="evenodd" clip-rule="evenodd" d="M867.684 773C867.388 773 867.09 772.898 866.844 772.69C817.417 730.722 765.836 712.881 731.268 705.304C693.787 697.089 667.666 698.831 667.407 698.849C666.663 698.899 666.054 698.343 666.003 697.604C665.952 696.865 666.498 696.224 667.223 696.172C667.484 696.153 693.901 694.381 731.72 702.658C766.603 710.292 818.653 728.281 868.526 770.626C869.084 771.1 869.16 771.947 868.696 772.517C868.436 772.835 868.061 773 867.684 773" fill="#21211D"/><path id="Fill 19" fill-rule="evenodd" clip-rule="evenodd" d="M847.711 180C847.649 180 847.585 179.995 847.52 179.985C833.459 177.822 814.624 171.449 804.757 153.37C798.835 142.521 798.992 132.716 799.002 132.303C799.019 131.566 799.564 130.981 800.322 131C801.033 131.016 801.597 131.629 801.582 132.366C801.58 132.462 801.448 141.95 807.066 152.169C814.593 165.861 828.331 174.33 847.9 177.34C848.604 177.449 849.09 178.129 848.986 178.859C848.891 179.523 848.34 180 847.711 180" fill="#21211D"/><path id="Fill 21" fill-rule="evenodd" clip-rule="evenodd" d="M557.312 181C556.601 181 556.016 180.423 556 179.699C555.984 178.963 556.557 178.353 557.281 178.336C582.715 177.74 601.334 169.608 611.129 154.818C618.526 143.649 618.376 132.473 618.374 132.362C618.357 131.627 618.932 131.017 619.656 131C620.389 130.982 620.98 131.564 620.998 132.299C621.014 132.968 621.24 148.827 608.459 162.426C597.379 174.216 580.181 180.465 557.343 181C557.332 181 557.321 181 557.312 181" fill="#21211D"/><g id="Group 25"><mask id="mask0db23afc3-7a0e-45c3-b08b-db4119720584" style="mask-type:alpha" maskUnits="userSpaceOnUse" x="697" y="130" width="24" height="61" fill="#ffffff"><path id="Clip 24" fill-rule="evenodd" clip-rule="evenodd" d="M697.191 130.813H720.138V190.273H697.191V130.813Z" fill="#ffffff"/></mask><g mask="url(#mask0db23afc3-7a0e-45c3-b08b-db4119720584)"><path id="Fill 23" fill-rule="evenodd" clip-rule="evenodd" d="M704.51 190.273H698.535C697.793 190.273 697.191 189.671 697.191 188.929C697.191 188.186 697.793 187.585 698.535 187.585H704.51C711.645 187.585 717.449 181.78 717.449 174.645V132.157C717.449 131.415 718.052 130.813 718.794 130.813C719.536 130.813 720.138 131.415 720.138 132.157V174.645C720.138 183.262 713.127 190.273 704.51 190.273" fill="#21211D"/></g></g><path id="Fill 26" fill-rule="evenodd" clip-rule="evenodd" d="M709.307 698C709.104 698 708.897 697.951 708.704 697.848C708.063 697.505 707.815 696.693 708.148 696.034C709.061 694.234 799.385 515.316 799.385 454.472C799.385 369.208 715.031 241.385 714.178 240.103C713.771 239.49 713.924 238.653 714.52 238.234C715.115 237.816 715.93 237.972 716.338 238.585C716.552 238.907 737.988 271.264 759.14 313.796C794.564 385.03 802 429.614 802 454.472C802 480.324 786.589 529.056 756.195 599.314C733.595 651.559 710.696 696.825 710.468 697.277C710.235 697.737 709.779 698 709.307 698" fill="#21211D"/><path id="Fill 28" fill-rule="evenodd" clip-rule="evenodd" d="M827.714 987L618 879.313L625.691 863.743L659.713 794.814L665.733 782.615L672.95 768L774.936 818.082C774.963 819.56 775.016 821.024 775.094 822.488C775.332 826.948 775.727 831.287 776.294 835.532C776.82 839.562 777.492 843.512 778.309 847.394C781.509 862.736 786.963 877.15 794.641 891.981C804.375 910.776 815.412 929.26 821.05 949.896C822.577 955.484 824.501 961.314 825.949 967.239C827.53 973.781 828.518 980.431 827.714 987" fill="#F62A26"/><path id="Fill 30" fill-rule="evenodd" clip-rule="evenodd" d="M827.714 987L618 879.537L625.691 864L825.949 967.28C827.53 973.808 828.518 980.445 827.714 987" fill="#EDE8D6"/><path id="Fill 32" fill-rule="evenodd" clip-rule="evenodd" d="M793.355 880.867C799.292 883.992 810.485 889.696 822.582 894.88C845.77 904.817 861.671 908.383 868.573 905.192C870.483 904.31 871.641 902.919 872.117 900.941C872.765 898.239 872.254 895.881 870.555 893.73C865.398 887.202 849.621 882.928 824.929 881.369C812.105 880.56 799.909 880.694 793.355 880.867M862.236 909C838.789 909 790.005 882.163 787.692 880.883C787.173 880.595 786.903 879.984 787.032 879.389C787.161 878.793 787.656 878.36 788.242 878.331C791.13 878.187 859.117 874.975 872.573 892.009C874.801 894.829 875.5 898.056 874.649 901.597C873.978 904.4 872.289 906.444 869.634 907.671C867.646 908.59 865.134 909 862.236 909" fill="#21211D"/><path id="Fill 34" fill-rule="evenodd" clip-rule="evenodd" d="M793.247 883.622C796.818 888.582 803.371 897.42 810.882 906.294C825.649 923.742 837.333 933.408 844.67 934.245C846.78 934.486 848.467 933.99 849.824 932.727C851.877 930.817 852.679 928.691 852.279 926.226C851.097 918.957 839.821 908.958 819.67 897.311C809.26 891.293 798.924 886.274 793.247 883.622M845.664 937C845.246 937 844.819 936.975 844.381 936.925C825.254 934.742 789.743 883.315 788.24 881.127C787.902 880.634 787.923 879.971 788.291 879.501C788.659 879.032 789.284 878.872 789.823 879.108C792.349 880.216 851.721 906.471 854.862 925.781C855.414 929.177 854.31 932.188 851.579 934.728C849.955 936.238 847.969 937 845.664 937" fill="#21211D"/><path id="Fill 36" fill-rule="evenodd" clip-rule="evenodd" d="M788.69 882C788.492 882 788.291 881.953 788.103 881.852L770.72 872.612C770.075 872.269 769.815 871.439 770.14 870.759C770.466 870.079 771.253 869.805 771.897 870.148L789.28 879.388C789.925 879.731 790.185 880.561 789.86 881.241C789.629 881.722 789.169 882 788.69 882" fill="#21211D"/><path id="Fill 38" fill-rule="evenodd" clip-rule="evenodd" d="M799.69 904C799.492 904 799.291 903.953 799.103 903.852L781.72 894.612C781.075 894.269 780.815 893.439 781.14 892.76C781.465 892.078 782.253 891.805 782.897 892.148L800.28 901.388C800.925 901.731 801.185 902.561 800.86 903.241C800.629 903.722 800.169 904 799.69 904" fill="#21211D"/><path id="Fill 40" fill-rule="evenodd" clip-rule="evenodd" d="M810.69 925C810.492 925 810.291 924.953 810.103 924.852L792.72 915.612C792.075 915.269 791.815 914.439 792.14 913.76C792.466 913.078 793.253 912.805 793.897 913.148L811.28 922.388C811.925 922.731 812.185 923.561 811.86 924.241C811.629 924.722 811.169 925 810.69 925" fill="#21211D"/><path id="Fill 42" fill-rule="evenodd" clip-rule="evenodd" d="M661.956 883C661.754 883 661.549 882.952 661.357 882.851C660.716 882.512 660.466 881.705 660.797 881.049C667.458 867.856 666.958 854.861 659.313 842.426C653.544 833.039 645.652 827.499 645.573 827.444C644.977 827.029 644.82 826.199 645.225 825.587C645.629 824.976 646.441 824.816 647.037 825.229C647.369 825.46 680.097 848.645 663.116 882.277C662.884 882.736 662.428 883 661.956 883" fill="#21211D"/><path id="Fill 44" fill-rule="evenodd" clip-rule="evenodd" d="M705 816.5C705 823.956 699.179 830 692 830C684.821 830 679 823.956 679 816.5C679 809.044 684.821 803 692 803C699.179 803 705 809.044 705 816.5" fill="white"/><g id="Group 48"><mask id="mask1db23afc3-7a0e-45c3-b08b-db4119720584" style="mask-type:alpha" maskUnits="userSpaceOnUse" x="16" y="233" width="265" height="203" fill="#ffffff"><path id="Clip 47" fill-rule="evenodd" clip-rule="evenodd" d="M16 233.994H280.392V435.091H16V233.994Z" fill="#ffffff"/></mask><g mask="url(#mask1db23afc3-7a0e-45c3-b08b-db4119720584)"><path id="Fill 46" fill-rule="evenodd" clip-rule="evenodd" d="M280.392 325.366C276.303 347.17 265.577 374.298 248.199 401.198C245.556 405.284 242.914 409.29 240.285 413.189C240.167 413.363 240.049 413.538 239.931 413.713C222.921 407.637 204.28 402.031 186.324 400.243C184.891 400.095 183.458 399.974 182.025 399.88C177.661 399.598 173.402 399.49 169.208 399.571C167.079 399.598 164.963 399.679 162.873 399.799C161.046 399.907 159.245 400.041 157.444 400.216C142.156 401.668 127.512 405.499 112.211 411.535C92.808 419.198 73.55 428.218 52.833 431.511C41.0547 433.38 28.0023 436.942 16 433.918L145.192 233.994L222.42 286.18L233.568 293.721L235.369 294.945L246.924 302.755L280.392 325.366Z" fill="white"/></g></g><g id="Group 51"><mask id="mask2db23afc3-7a0e-45c3-b08b-db4119720584" style="mask-type:alpha" maskUnits="userSpaceOnUse" x="16" y="233" width="232" height="203" fill="#ffffff"><path id="Clip 50" fill-rule="evenodd" clip-rule="evenodd" d="M16 233.995H247.17V435.089H16V233.995Z" fill="#ffffff"/></mask><g mask="url(#mask2db23afc3-7a0e-45c3-b08b-db4119720584)"><path id="Fill 49" fill-rule="evenodd" clip-rule="evenodd" d="M247.17 302.755L186.505 400.243C185.071 400.095 183.637 399.974 182.202 399.88C177.833 399.598 173.57 399.49 169.372 399.571C165.385 399.625 161.463 399.853 157.594 400.216C142.29 401.668 127.631 405.499 112.313 411.535C92.8909 419.198 73.6114 428.218 52.8723 431.511C47.2671 432.399 41.3712 433.662 35.4371 434.429C28.8961 435.276 22.3041 435.504 16 433.918L145.33 233.995L159.569 243.606L222.641 286.18L233.8 293.722L247.17 302.755Z" fill="#F62A26"/></g></g><g id="Group 54"><mask id="mask3db23afc3-7a0e-45c3-b08b-db4119720584" style="mask-type:alpha" maskUnits="userSpaceOnUse" x="16" y="233" width="143" height="203" fill="#ffffff"><path id="Clip 53" fill-rule="evenodd" clip-rule="evenodd" d="M16 233.994H158.672V435.088H16V233.994Z" fill="#ffffff"/></mask><g mask="url(#mask3db23afc3-7a0e-45c3-b08b-db4119720584)"><path id="Fill 52" fill-rule="evenodd" clip-rule="evenodd" d="M158.672 243.606L35.3157 434.428C28.8165 435.275 22.2648 435.504 16 433.917L144.523 233.994L158.672 243.606Z" fill="#EDE8D6"/></g></g><path id="Fill 55" fill-rule="evenodd" clip-rule="evenodd" d="M123.909 410.381C120.147 416.098 113.238 426.899 106.729 438.688C94.2533 461.28 88.8672 477.156 91.1541 484.596C91.7869 486.655 93.0057 488.004 94.8801 488.721C97.4388 489.7 99.8021 489.451 102.106 487.961C109.098 483.437 115.161 467.766 119.64 442.643C121.966 429.603 123.293 417.11 123.909 410.381M97.8553 492C96.572 492 95.2639 491.747 93.936 491.239C91.2801 490.223 89.488 488.257 88.6073 485.394C82.6182 465.907 122.856 407.074 124.572 404.578C124.913 404.081 125.544 403.875 126.109 404.076C126.675 404.278 127.038 404.836 126.997 405.439C126.792 408.414 121.783 478.427 103.544 490.228C101.719 491.409 99.816 492 97.8553 492" fill="#21211D"/><path id="Fill 57" fill-rule="evenodd" clip-rule="evenodd" d="M119.651 410.248C114.179 413.514 104.645 419.393 95.0805 426.186C76.0294 439.718 65.5091 450.635 64.6575 457.758C64.4088 459.839 65.0204 461.55 66.5281 462.989C67.6701 464.076 69.0752 464.494 70.821 464.262C77.6301 463.358 88.7156 452.988 102.88 434.271C109.957 424.92 116.171 415.613 119.651 410.248M69.9104 467C67.9168 467 66.1875 466.313 64.7591 464.95C62.6242 462.915 61.7213 460.385 62.0746 457.43C64.3294 438.588 120.675 406.522 123.072 405.166C123.593 404.871 124.242 404.977 124.648 405.423C125.054 405.869 125.115 406.541 124.797 407.057C123.345 409.403 89.0543 464.541 71.1549 466.915C70.7291 466.972 70.3149 467 69.9104 467" fill="#21211D"/><path id="Fill 59" fill-rule="evenodd" clip-rule="evenodd" d="M124.37 407C124.111 407 123.847 406.929 123.615 406.781C122.983 406.379 122.81 405.561 123.227 404.954L134.485 388.592C134.903 387.985 135.753 387.817 136.385 388.219C137.017 388.621 137.19 389.439 136.773 390.046L125.515 406.409C125.251 406.792 124.814 407 124.37 407" fill="#21211D"/><path id="Fill 61" fill-rule="evenodd" clip-rule="evenodd" d="M101.37 416C101.111 416 100.847 415.929 100.615 415.781C99.9835 415.379 99.8101 414.561 100.227 413.954L111.485 397.592C111.902 396.985 112.753 396.817 113.385 397.219C114.017 397.621 114.19 398.439 113.773 399.046L102.515 415.409C102.251 415.792 101.814 416 101.37 416" fill="#21211D"/><path id="Fill 63" fill-rule="evenodd" clip-rule="evenodd" d="M79.3696 424C79.1106 424 78.8474 423.929 78.6148 423.781C77.9835 423.379 77.8101 422.561 78.2272 421.954L89.4849 405.592C89.9031 404.985 90.7528 404.817 91.3852 405.219C92.0165 405.621 92.1899 406.439 91.7728 407.046L80.5151 423.409C80.2509 423.792 79.8143 424 79.3696 424" fill="#21211D"/><path id="Fill 65" fill-rule="evenodd" clip-rule="evenodd" d="M158.948 286C152.02 286 144.441 284.008 136.573 278.65C135.977 278.244 135.821 277.429 136.224 276.829C136.627 276.228 137.438 276.07 138.033 276.476C166.711 296.004 191.464 267.742 191.71 267.454C192.18 266.906 193.004 266.846 193.548 267.319C194.093 267.792 194.154 268.621 193.683 269.169C193.488 269.397 178.943 286 158.948 286" fill="#21211D"/><path id="Fill 67" fill-rule="evenodd" clip-rule="evenodd" d="M196.476 328.906C189.346 328.031 184.249 321.321 185.091 313.916C185.933 306.513 192.395 301.221 199.524 302.094C206.654 302.969 211.751 309.679 210.909 317.084C210.068 324.487 203.606 329.779 196.476 328.906" fill="white"/><path id="Fill 69" fill-rule="evenodd" clip-rule="evenodd" d="M683.306 774C683.117 774 682.926 773.958 682.744 773.869C682.093 773.554 681.817 772.76 682.128 772.097L701.514 730.758C701.825 730.095 702.603 729.813 703.256 730.13C703.907 730.446 704.183 731.241 703.873 731.903L684.486 773.242C684.261 773.721 683.794 774 683.306 774" fill="#EDC829"/><path id="Fill 71" fill-rule="evenodd" clip-rule="evenodd" d="M699.325 782C699.136 782 698.944 781.958 698.761 781.87C698.098 781.55 697.814 780.742 698.127 780.066L719.475 733.778C719.788 733.102 720.577 732.81 721.24 733.13C721.902 733.449 722.185 734.257 721.873 734.935L700.526 781.222C700.299 781.713 699.822 782 699.325 782" fill="#EDC829"/><path id="Fill 73" fill-rule="evenodd" clip-rule="evenodd" d="M716.325 791C716.13 791 715.934 790.957 715.748 790.864C715.088 790.537 714.813 789.725 715.134 789.051L738.482 739.765C738.803 739.091 739.594 738.809 740.253 739.136C740.911 739.463 741.186 740.275 740.867 740.949L717.517 790.235C717.289 790.718 716.817 791 716.325 791" fill="#EDC829"/><path id="Fill 75" fill-rule="evenodd" clip-rule="evenodd" d="M734.329 799C734.144 799 733.955 798.96 733.775 798.877C733.107 798.567 732.816 797.77 733.121 797.095L756.461 745.784C756.768 745.11 757.557 744.812 758.224 745.123C758.892 745.433 759.185 746.231 758.878 746.905L735.54 798.217C735.315 798.709 734.833 799 734.329 799" fill="#EDC829"/><path id="Fill 77" fill-rule="evenodd" clip-rule="evenodd" d="M760.809 812C760.201 812 759.659 811.552 759.537 810.907C759.35 809.912 755.164 786.15 773.568 751.695C773.917 751.042 774.707 750.807 775.334 751.172C775.96 751.536 776.184 752.362 775.836 753.016C757.934 786.528 762.041 810.151 762.085 810.386C762.221 811.12 761.762 811.832 761.059 811.975C760.975 811.992 760.891 812 760.809 812" fill="#EDC829"/><path id="Fill 79" fill-rule="evenodd" clip-rule="evenodd" d="M277.657 335C277.415 335 277.169 334.935 276.948 334.8L240.631 312.442C240.002 312.055 239.812 311.24 240.204 310.621C240.597 310.003 241.424 309.814 242.052 310.2L278.37 332.558C278.997 332.945 279.189 333.76 278.796 334.379C278.542 334.78 278.104 335 277.657 335" fill="#EDC829"/><path id="Fill 81" fill-rule="evenodd" clip-rule="evenodd" d="M271.686 353C271.447 353 271.207 352.934 270.99 352.795L231.616 327.49C231.002 327.095 230.815 326.263 231.2 325.633C231.585 325.002 232.395 324.81 233.01 325.206L272.384 350.51C272.998 350.905 273.185 351.737 272.8 352.368C272.551 352.775 272.123 353 271.686 353" fill="#EDC829"/><path id="Fill 83" fill-rule="evenodd" clip-rule="evenodd" d="M265.669 372C265.428 372 265.183 371.934 264.963 371.796L221.621 344.462C221 344.07 220.814 343.248 221.204 342.624C221.594 342.001 222.414 341.813 223.036 342.204L266.378 369.538C267 369.93 267.187 370.752 266.796 371.376C266.543 371.779 266.111 372 265.669 372" fill="#EDC829"/><path id="Fill 85" fill-rule="evenodd" clip-rule="evenodd" d="M254.688 389C254.465 389 254.238 388.941 254.031 388.818L209.651 362.49C209.027 362.119 208.814 361.302 209.178 360.664C209.542 360.027 210.343 359.81 210.969 360.181L255.349 386.511C255.973 386.881 256.186 387.699 255.822 388.336C255.579 388.762 255.139 389 254.688 389" fill="#EDC829"/><path id="Fill 87" fill-rule="evenodd" clip-rule="evenodd" d="M245.703 405C245.448 405 245.191 404.922 244.965 404.76C229.28 393.465 216.948 389.241 209.365 387.687C201.173 386.007 196.619 386.999 196.575 387.009C195.875 387.168 195.186 386.712 195.031 385.989C194.877 385.267 195.313 384.551 196.009 384.39C196.787 384.208 215.405 380.204 246.443 402.555C247.031 402.978 247.177 403.815 246.768 404.424C246.517 404.798 246.113 405 245.703 405" fill="#EDC829"/></g></g></g><g id="Upper Body" transform="translate(151 35) scale(1 1)"><g id="Upper Body/Giant Pencil 2"><g id="Group 92"><g id="Group 9"><path id="Fill 1" fill-rule="evenodd" clip-rule="evenodd" d="M969.633 437.184C970.306 441.741 970.65 446.269 970.894 450.788C971.133 455.306 971.23 459.811 971.236 464.309C971.244 468.807 971.114 473.292 970.944 477.774C970.738 482.252 970.46 486.725 970.183 491.197C969.096 509.088 967.882 526.967 966.271 544.811C964.675 562.656 962.681 580.466 960.596 598.268C960.081 602.719 959.565 607.17 958.971 611.614C958.36 616.056 957.683 620.493 956.904 624.92C956.115 629.346 955.241 633.765 954.236 638.173C953.224 642.579 952.12 646.977 950.703 651.348C942.291 677.305 914.428 691.528 888.471 683.116C869.837 677.077 857.254 660.96 854.747 642.775C854.128 638.223 853.82 633.698 853.606 629.182C853.398 624.666 853.321 620.163 853.329 615.666C853.347 611.171 853.467 606.685 853.654 602.205C853.857 597.726 854.138 593.254 854.421 588.782C855.524 570.893 856.718 553.011 858.311 535.166C859.889 517.319 861.863 499.507 863.966 481.707C864.486 477.257 865.005 472.806 865.596 468.362C866.223 463.921 866.89 459.484 867.696 455.059C868.499 450.633 869.393 446.216 870.428 441.812C871.47 437.408 872.611 433.013 874.081 428.647C882.779 402.828 910.761 388.948 936.58 397.646C954.729 403.76 966.977 419.463 969.633 437.184" fill="#963716"/><path id="Fill 3" fill-rule="evenodd" clip-rule="evenodd" d="M811.845 694.622H460.312L463.27 551.508L464.774 478.191C467.907 452.233 483.285 430.536 504.606 418.464C517.013 411.433 531.439 407.669 546.643 408.22L548.604 408.274L688.762 412.065L694.26 412.213C704.476 412.576 714.275 414.888 723.241 418.8C745.476 428.519 762.644 448.146 768.706 472.76L776.826 514.54L811.845 694.622Z" fill="#963716"/><path id="Fill 5" fill-rule="evenodd" clip-rule="evenodd" d="M969.383 443.508C967.313 467.342 948.291 485.611 925.236 487.507L924.752 487.533C918.461 488.058 911.927 488.515 905.488 488.918C899.022 489.308 892.543 489.725 886.077 490.034L876.358 490.558L866.638 490.975C860.159 491.298 853.679 491.58 847.2 491.795C821.296 492.857 795.378 493.408 769.5 494.228C762.496 494.43 755.492 494.658 748.488 494.9C742.561 495.115 736.619 495.33 730.69 495.545C717.771 496.003 704.853 496.46 691.947 496.997L663.476 498.234L653.273 498.678L633.982 499.592L629.155 499.82C627.516 499.888 626.104 499.995 624.572 500.089L615.551 500.64C610.322 501.03 605.093 501.46 599.837 501.958C580.775 503.719 561.538 506.165 542.247 509.217C524.825 511.905 507.363 515.091 489.887 518.56C482.682 519.998 475.463 521.477 468.257 522.983C443.589 528.225 418.922 534.073 394.389 540.485C391.62 541.211 388.85 541.937 386.081 542.676L424.165 607.081L321.823 634.505L260.201 538.402C244.594 514.07 251.678 481.686 276.01 466.092C279.546 463.82 283.269 462.019 287.074 460.701L288.835 460.11L298.944 456.83L308.69 453.765C315.169 451.748 321.622 449.813 328.088 447.89C341.007 444.059 353.966 440.456 366.952 436.948C392.937 429.944 419.083 423.532 445.458 417.697C464.641 413.45 483.959 409.591 503.451 406.19C505.965 405.747 508.478 405.317 511.006 404.9C515.832 404.066 520.672 403.273 525.524 402.52C532.366 401.432 539.249 400.41 546.146 399.456C546.213 399.442 546.267 399.442 546.334 399.429C566.579 396.633 587.079 394.401 607.862 392.841L618.388 392.183L623.591 391.874L628.551 391.632L648.392 390.65C655.006 390.341 661.607 390.086 668.221 389.844C674.835 389.588 681.435 389.373 688.036 389.185C688.748 389.158 689.447 389.145 690.159 389.118C700.241 388.795 710.311 388.513 720.38 388.284C722.799 388.204 725.205 388.15 727.625 388.096C740.813 387.841 754 387.599 767.174 387.451C793.536 387.102 819.87 386.859 846.205 387.437C852.793 387.518 859.38 387.72 865.966 387.935L875.847 388.244L885.714 388.674C892.315 388.956 898.902 389.333 905.502 389.723C912.116 390.126 918.649 390.61 925.41 391.201C952.001 393.5 971.682 416.931 969.383 443.508" fill="#963716"/><path id="Fill 7" fill-rule="evenodd" clip-rule="evenodd" d="M811.845 694.622H460.312L463.27 551.508C470.059 546.602 480.892 536.654 489.886 518.56C500.304 497.656 515.509 461.831 511.866 414.431C511.637 411.326 511.342 408.153 511.006 404.9C515.831 404.067 520.67 403.274 525.523 402.521C532.365 401.432 539.249 400.41 546.145 399.456C546.213 399.442 546.265 399.442 546.332 399.429C547.085 402.507 547.986 406.164 548.604 408.274C555.554 431.867 572.251 471.093 599.837 493.892C609.394 501.797 620.27 506.744 632.503 506.744C645.543 506.744 655.651 500.291 663.475 490.168C679.875 468.983 683.048 439.757 685.535 412.065C686.342 403.126 686.73 395.194 686.932 389.118C697.014 388.795 710.31 388.513 720.379 388.285C721.038 399.402 722.018 409.551 723.241 418.8C728.444 457.838 738.257 481.094 748.487 494.9C759.067 509.231 770.077 513.411 776.826 514.54L811.845 694.622Z" fill="#2448cd"/></g><g id="Group 31"><g id="Group 12"><mask id="mask058a4d199-2825-4e5e-8b18-23e1ef1cd4cc" style="mask-type:alpha" maskUnits="userSpaceOnUse" x="460" y="388" width="352" height="307" fill="#ffffff"><path id="Clip 11" fill-rule="evenodd" clip-rule="evenodd" d="M686.932 389.118C686.731 395.194 686.343 403.126 685.535 412.066V412.066C683.049 439.758 679.874 468.983 663.475 490.169V490.169C655.651 500.291 645.543 506.744 632.503 506.744V506.744C620.27 506.744 609.395 501.797 599.837 493.893V493.893C572.252 471.093 555.555 431.867 548.605 408.275V408.275C547.987 406.164 547.086 402.508 546.332 399.429V399.429C546.266 399.442 546.213 399.442 546.145 399.456V399.456C539.249 400.411 532.365 401.432 525.524 402.521V402.521C520.671 403.274 515.831 404.067 511.006 404.9V404.9C511.342 408.153 511.637 411.326 511.866 414.431V414.431C515.509 461.831 500.305 497.657 489.886 518.56V518.56C480.892 536.655 470.059 546.602 463.27 551.509V551.509L460.312 694.623H811.845L776.826 514.541C770.078 513.411 759.067 509.231 748.488 494.901V494.901C738.257 481.095 728.445 457.839 723.242 418.8V418.8C722.019 409.552 721.038 399.402 720.379 388.285V388.285C710.31 388.514 697.014 388.795 686.932 389.118V389.118Z" fill="#ffffff"/></mask><g mask="url(#mask058a4d199-2825-4e5e-8b18-23e1ef1cd4cc)"><path id="Fill 10" fill-rule="evenodd" clip-rule="evenodd" d="M494.774 717.105C494.542 714.681 471.481 473.2 469.996 342.607L478.061 342.515C479.543 472.768 502.571 713.913 502.803 716.334L494.774 717.105Z" fill="#B6CCFC"/></g></g><g id="Group 15"><mask id="mask158a4d199-2825-4e5e-8b18-23e1ef1cd4cc" style="mask-type:alpha" maskUnits="userSpaceOnUse" x="460" y="388" width="352" height="307" fill="#ffffff"><path id="Clip 14" fill-rule="evenodd" clip-rule="evenodd" d="M686.932 389.118C686.731 395.194 686.343 403.126 685.535 412.066V412.066C683.049 439.758 679.874 468.983 663.475 490.169V490.169C655.651 500.291 645.543 506.744 632.503 506.744V506.744C620.27 506.744 609.395 501.797 599.837 493.893V493.893C572.252 471.093 555.555 431.867 548.605 408.275V408.275C547.987 406.164 547.086 402.508 546.332 399.429V399.429C546.266 399.442 546.213 399.442 546.145 399.456V399.456C539.249 400.411 532.365 401.432 525.524 402.521V402.521C520.671 403.274 515.831 404.067 511.006 404.9V404.9C511.342 408.153 511.637 411.326 511.866 414.431V414.431C515.509 461.831 500.305 497.657 489.886 518.56V518.56C480.892 536.655 470.059 546.602 463.27 551.509V551.509L460.312 694.623H811.845L776.826 514.541C770.078 513.411 759.067 509.231 748.488 494.901V494.901C738.257 481.095 728.445 457.839 723.242 418.8V418.8C722.019 409.552 721.038 399.402 720.379 388.285V388.285C710.31 388.514 697.014 388.795 686.932 389.118V389.118Z" fill="#ffffff"/></mask><g mask="url(#mask158a4d199-2825-4e5e-8b18-23e1ef1cd4cc)"><path id="Fill 13" fill-rule="evenodd" clip-rule="evenodd" d="M545.823 740.337C545.667 737.663 530.078 471.358 520.438 337.251L528.483 336.673C538.127 470.833 553.719 737.191 553.875 739.866L545.823 740.337Z" fill="#B6CCFC"/></g></g><g id="Group 18"><mask id="mask258a4d199-2825-4e5e-8b18-23e1ef1cd4cc" style="mask-type:alpha" maskUnits="userSpaceOnUse" x="460" y="388" width="352" height="307" fill="#ffffff"><path id="Clip 17" fill-rule="evenodd" clip-rule="evenodd" d="M686.932 389.118C686.731 395.194 686.343 403.126 685.535 412.066V412.066C683.049 439.758 679.874 468.983 663.475 490.169V490.169C655.651 500.291 645.543 506.744 632.503 506.744V506.744C620.27 506.744 609.395 501.797 599.837 493.893V493.893C572.252 471.093 555.555 431.867 548.605 408.275V408.275C547.987 406.164 547.086 402.508 546.332 399.429V399.429C546.266 399.442 546.213 399.442 546.145 399.456V399.456C539.249 400.411 532.365 401.432 525.524 402.521V402.521C520.671 403.274 515.831 404.067 511.006 404.9V404.9C511.342 408.153 511.637 411.326 511.866 414.431V414.431C515.509 461.831 500.305 497.657 489.886 518.56V518.56C480.892 536.655 470.059 546.602 463.27 551.509V551.509L460.312 694.623H811.845L776.826 514.541C770.078 513.411 759.067 509.231 748.488 494.901V494.901C738.257 481.095 728.445 457.839 723.242 418.8V418.8C722.019 409.552 721.038 399.402 720.379 388.285V388.285C710.31 388.514 697.014 388.795 686.932 389.118V389.118Z" fill="#ffffff"/></mask><g mask="url(#mask258a4d199-2825-4e5e-8b18-23e1ef1cd4cc)"><path id="Fill 16" fill-rule="evenodd" clip-rule="evenodd" d="M588.885 716.096C588.68 714.128 568.319 517.784 558.672 383.587L566.717 383.009C576.355 517.08 596.703 713.296 596.907 715.262L588.885 716.096Z" fill="#B6CCFC"/></g></g><g id="Group 21"><mask id="mask358a4d199-2825-4e5e-8b18-23e1ef1cd4cc" style="mask-type:alpha" maskUnits="userSpaceOnUse" x="460" y="388" width="352" height="307" fill="#ffffff"><path id="Clip 20" fill-rule="evenodd" clip-rule="evenodd" d="M686.932 389.118C686.731 395.194 686.343 403.126 685.535 412.066V412.066C683.049 439.758 679.874 468.983 663.475 490.169V490.169C655.651 500.291 645.543 506.744 632.503 506.744V506.744C620.27 506.744 609.395 501.797 599.837 493.893V493.893C572.252 471.093 555.555 431.867 548.605 408.275V408.275C547.987 406.164 547.086 402.508 546.332 399.429V399.429C546.266 399.442 546.213 399.442 546.145 399.456V399.456C539.249 400.411 532.365 401.432 525.524 402.521V402.521C520.671 403.274 515.831 404.067 511.006 404.9V404.9C511.342 408.153 511.637 411.326 511.866 414.431V414.431C515.509 461.831 500.305 497.657 489.886 518.56V518.56C480.892 536.655 470.059 546.602 463.27 551.509V551.509L460.312 694.623H811.845L776.826 514.541C770.078 513.411 759.067 509.231 748.488 494.901V494.901C738.257 481.095 728.445 457.839 723.242 418.8V418.8C722.019 409.552 721.038 399.402 720.379 388.285V388.285C710.31 388.514 697.014 388.795 686.932 389.118V389.118Z" fill="#ffffff"/></mask><g mask="url(#mask358a4d199-2825-4e5e-8b18-23e1ef1cd4cc)"><path id="Fill 19" fill-rule="evenodd" clip-rule="evenodd" d="M633.476 726.88C633.223 724.575 608.148 494.96 604.434 375.387L612.496 375.136C616.2 494.398 641.241 723.698 641.494 726.001L633.476 726.88Z" fill="#B6CCFC"/></g></g><g id="Group 24"><mask id="mask458a4d199-2825-4e5e-8b18-23e1ef1cd4cc" style="mask-type:alpha" maskUnits="userSpaceOnUse" x="460" y="388" width="352" height="307" fill="#ffffff"><path id="Clip 23" fill-rule="evenodd" clip-rule="evenodd" d="M686.932 389.118C686.731 395.194 686.343 403.126 685.535 412.066V412.066C683.049 439.758 679.874 468.983 663.475 490.169V490.169C655.651 500.291 645.543 506.744 632.503 506.744V506.744C620.27 506.744 609.395 501.797 599.837 493.893V493.893C572.252 471.093 555.555 431.867 548.605 408.275V408.275C547.987 406.164 547.086 402.508 546.332 399.429V399.429C546.266 399.442 546.213 399.442 546.145 399.456V399.456C539.249 400.411 532.365 401.432 525.524 402.521V402.521C520.671 403.274 515.831 404.067 511.006 404.9V404.9C511.342 408.153 511.637 411.326 511.866 414.431V414.431C515.509 461.831 500.305 497.657 489.886 518.56V518.56C480.892 536.655 470.059 546.602 463.27 551.509V551.509L460.312 694.623H811.845L776.826 514.541C770.078 513.411 759.067 509.231 748.488 494.901V494.901C738.257 481.095 728.445 457.839 723.242 418.8V418.8C722.019 409.552 721.038 399.402 720.379 388.285V388.285C710.31 388.514 697.014 388.795 686.932 389.118V389.118Z" fill="#ffffff"/></mask><g mask="url(#mask458a4d199-2825-4e5e-8b18-23e1ef1cd4cc)"><path id="Fill 22" fill-rule="evenodd" clip-rule="evenodd" d="M675.75 728.427C675.571 726.379 657.694 521.673 642.414 352.093L650.447 351.369C665.729 520.961 683.606 725.677 683.785 727.725L675.75 728.427Z" fill="#B6CCFC"/></g></g><g id="Group 27"><mask id="mask558a4d199-2825-4e5e-8b18-23e1ef1cd4cc" style="mask-type:alpha" maskUnits="userSpaceOnUse" x="460" y="388" width="352" height="307" fill="#ffffff"><path id="Clip 26" fill-rule="evenodd" clip-rule="evenodd" d="M686.932 389.118C686.731 395.194 686.343 403.126 685.535 412.066V412.066C683.049 439.758 679.874 468.983 663.475 490.169V490.169C655.651 500.291 645.543 506.744 632.503 506.744V506.744C620.27 506.744 609.395 501.797 599.837 493.893V493.893C572.252 471.093 555.555 431.867 548.605 408.275V408.275C547.987 406.164 547.086 402.508 546.332 399.429V399.429C546.266 399.442 546.213 399.442 546.145 399.456V399.456C539.249 400.411 532.365 401.432 525.524 402.521V402.521C520.671 403.274 515.831 404.067 511.006 404.9V404.9C511.342 408.153 511.637 411.326 511.866 414.431V414.431C515.509 461.831 500.305 497.657 489.886 518.56V518.56C480.892 536.655 470.059 546.602 463.27 551.509V551.509L460.312 694.623H811.845L776.826 514.541C770.078 513.411 759.067 509.231 748.488 494.901V494.901C738.257 481.095 728.445 457.839 723.242 418.8V418.8C722.019 409.552 721.038 399.402 720.379 388.285V388.285C710.31 388.514 697.014 388.795 686.932 389.118V389.118Z" fill="#ffffff"/></mask><g mask="url(#mask558a4d199-2825-4e5e-8b18-23e1ef1cd4cc)"><path id="Fill 25" fill-rule="evenodd" clip-rule="evenodd" d="M720.779 733.023C720.593 730.725 702.007 501.291 686.727 331.723L694.76 331C710.043 500.604 728.633 730.074 728.818 732.372L720.779 733.023Z" fill="#B6CCFC"/></g></g><g id="Group 30"><mask id="mask658a4d199-2825-4e5e-8b18-23e1ef1cd4cc" style="mask-type:alpha" maskUnits="userSpaceOnUse" x="460" y="388" width="352" height="307" fill="#ffffff"><path id="Clip 29" fill-rule="evenodd" clip-rule="evenodd" d="M686.932 389.118C686.731 395.194 686.343 403.126 685.535 412.066V412.066C683.049 439.758 679.874 468.983 663.475 490.169V490.169C655.651 500.291 645.543 506.744 632.503 506.744V506.744C620.27 506.744 609.395 501.797 599.837 493.893V493.893C572.252 471.093 555.555 431.867 548.605 408.275V408.275C547.987 406.164 547.086 402.508 546.332 399.429V399.429C546.266 399.442 546.213 399.442 546.145 399.456V399.456C539.249 400.411 532.365 401.432 525.524 402.521V402.521C520.671 403.274 515.831 404.067 511.006 404.9V404.9C511.342 408.153 511.637 411.326 511.866 414.431V414.431C515.509 461.831 500.305 497.657 489.886 518.56V518.56C480.892 536.655 470.059 546.602 463.27 551.509V551.509L460.312 694.623H811.845L776.826 514.541C770.078 513.411 759.067 509.231 748.488 494.901V494.901C738.257 481.095 728.445 457.839 723.242 418.8V418.8C722.019 409.552 721.038 399.402 720.379 388.285V388.285C710.31 388.514 697.014 388.795 686.932 389.118V389.118Z" fill="#ffffff"/></mask><g mask="url(#mask658a4d199-2825-4e5e-8b18-23e1ef1cd4cc)"><path id="Fill 28" fill-rule="evenodd" clip-rule="evenodd" d="M768.59 728.829C768.411 726.781 750.534 522.075 735.254 352.495L743.287 351.771C758.568 521.363 776.446 726.078 776.625 728.126L768.59 728.829Z" fill="#B6CCFC"/></g></g></g><g id="Group 91"><path id="Fill 32" fill-rule="evenodd" clip-rule="evenodd" d="M883.09 492.14H854.078C853.336 492.14 852.734 491.538 852.734 490.796C852.734 490.053 853.336 489.452 854.078 489.452H883.09C883.832 489.452 884.434 490.053 884.434 490.796C884.434 491.538 883.832 492.14 883.09 492.14" fill="#21211D"/><path id="Fill 34" fill-rule="evenodd" clip-rule="evenodd" d="M392.608 557.481C392.155 557.481 391.712 557.252 391.459 556.837L376.74 532.714C376.353 532.08 376.553 531.253 377.187 530.866C377.82 530.479 378.648 530.679 379.035 531.313L393.754 555.436C394.141 556.07 393.941 556.897 393.307 557.284C393.088 557.418 392.847 557.481 392.608 557.481" fill="#21211D"/><path id="Fill 36" fill-rule="evenodd" clip-rule="evenodd" d="M1065.47 668.488L289.837 810.26L265.926 679.104L1041.56 537.332L1065.47 668.488Z" fill="#ECE557"/><g id="Group 40"><mask id="mask758a4d199-2825-4e5e-8b18-23e1ef1cd4cc" style="mask-type:alpha" maskUnits="userSpaceOnUse" x="1036" y="537" width="124" height="132" fill="#ffffff"><path id="Clip 39" fill-rule="evenodd" clip-rule="evenodd" d="M1036.66 537.338H1159.99V668.49H1036.66V537.338Z" fill="#ffffff"/></mask><g mask="url(#mask758a4d199-2825-4e5e-8b18-23e1ef1cd4cc)"><path id="Fill 38" fill-rule="evenodd" clip-rule="evenodd" d="M1065.48 668.49C1065.48 668.49 1022.41 617.651 1041.57 537.338L1119.09 565.947L1156.86 579.877C1160.28 581.138 1161.09 585.603 1158.34 587.99L1127.92 614.363L1065.48 668.49Z" fill="#FBC4AB"/></g></g><g id="Group 43"><mask id="mask858a4d199-2825-4e5e-8b18-23e1ef1cd4cc" style="mask-type:alpha" maskUnits="userSpaceOnUse" x="208" y="679" width="82" height="139" fill="#ffffff"><path id="Clip 42" fill-rule="evenodd" clip-rule="evenodd" d="M208 679.104H289.836V817.387H208V679.104Z" fill="#ffffff"/></mask><g mask="url(#mask858a4d199-2825-4e5e-8b18-23e1ef1cd4cc)"><path id="Fill 41" fill-rule="evenodd" clip-rule="evenodd" d="M223.092 796.242L208.422 715.773C205.87 701.776 215.149 688.361 229.145 685.809L265.926 679.104L289.836 810.26L253.056 816.965C239.059 819.517 225.644 810.239 223.092 796.242" fill="#FBC4AB"/></g></g><path id="Fill 44" fill-rule="evenodd" clip-rule="evenodd" d="M270.148 703.618C269.511 703.618 268.946 703.164 268.827 702.515C268.694 701.785 269.177 701.085 269.908 700.951L1036.97 560.743C1037.7 560.611 1038.4 561.094 1038.53 561.824C1038.66 562.555 1038.18 563.255 1037.45 563.388L270.391 703.596C270.31 703.611 270.228 703.618 270.148 703.618" fill="#21211D"/><path id="Fill 46" fill-rule="evenodd" clip-rule="evenodd" d="M285.843 789.703C285.206 789.703 284.641 789.249 284.522 788.6C284.389 787.87 284.872 787.17 285.603 787.036L1052.66 646.828C1053.39 646.695 1054.09 647.179 1054.23 647.909C1054.36 648.639 1053.88 649.339 1053.15 649.473L286.086 789.681C286.005 789.696 285.923 789.703 285.843 789.703" fill="#21211D"/><path id="Fill 48" fill-rule="evenodd" clip-rule="evenodd" d="M275.378 732.313C274.741 732.313 274.176 731.859 274.057 731.21C273.924 730.48 274.408 729.78 275.138 729.646L1036.25 590.523C1036.97 590.388 1037.68 590.874 1037.81 591.604C1037.94 592.334 1037.46 593.034 1036.73 593.168L275.621 732.292C275.54 732.307 275.458 732.313 275.378 732.313" fill="#21211D"/><path id="Fill 50" fill-rule="evenodd" clip-rule="evenodd" d="M280.609 761.008C279.972 761.008 279.407 760.554 279.288 759.905C279.155 759.175 279.638 758.475 280.369 758.341L1041.48 619.218C1042.2 619.083 1042.91 619.569 1043.04 620.299C1043.17 621.029 1042.69 621.73 1041.96 621.863L280.852 760.986C280.771 761.001 280.689 761.008 280.609 761.008" fill="#21211D"/><g id="Group 54"><mask id="mask958a4d199-2825-4e5e-8b18-23e1ef1cd4cc" style="mask-type:alpha" maskUnits="userSpaceOnUse" x="1113" y="565" width="47" height="50" fill="#ffffff"><path id="Clip 53" fill-rule="evenodd" clip-rule="evenodd" d="M1113.67 565.947H1159.99V614.363H1113.67V565.947Z" fill="#ffffff"/></mask><g mask="url(#mask958a4d199-2825-4e5e-8b18-23e1ef1cd4cc)"><path id="Fill 52" fill-rule="evenodd" clip-rule="evenodd" d="M1127.92 614.363C1121 608.985 1115.97 601.141 1114.27 591.831C1112.58 582.534 1114.51 573.423 1119.09 565.947L1156.86 579.877C1160.28 581.138 1161.09 585.603 1158.34 587.99L1127.92 614.363Z" fill="#21211D"/></g></g><path id="Fill 55" fill-rule="evenodd" clip-rule="evenodd" d="M276.837 813.564C276.2 813.564 275.634 813.109 275.516 812.461L251.823 682.495C251.69 681.764 252.174 681.064 252.904 680.931C253.638 680.797 254.334 681.283 254.468 682.012L278.161 811.978C278.294 812.709 277.81 813.409 277.08 813.542C276.998 813.557 276.917 813.564 276.837 813.564" fill="#21211D"/><path id="Fill 57" fill-rule="evenodd" clip-rule="evenodd" d="M821.889 553.022C845.923 552.479 843.193 617.885 831.274 619.654C817.344 621.72 795.632 553.615 821.889 553.022" fill="#963716"/><path id="Fill 59" fill-rule="evenodd" clip-rule="evenodd" d="M798.682 555.499C822.716 554.957 819.985 620.363 808.067 622.131C794.137 624.197 772.425 556.092 798.682 555.499" fill="#963716"/><path id="Fill 61" fill-rule="evenodd" clip-rule="evenodd" d="M845.141 550.354C869.175 549.812 863.511 615.841 854.526 616.986C840.434 618.781 818.884 550.947 845.141 550.354" fill="#963716"/><path id="Fill 63" fill-rule="evenodd" clip-rule="evenodd" d="M840.293 602.645C839.734 602.645 839.213 602.294 839.022 601.737C835.165 590.505 829.134 566.735 833.911 557.164C834.243 556.5 835.05 556.23 835.714 556.562C836.378 556.893 836.648 557.7 836.316 558.365C832.255 566.502 837.23 588.239 841.564 600.864C841.806 601.566 841.432 602.331 840.73 602.572C840.585 602.621 840.438 602.645 840.293 602.645" fill="#21211D"/><path id="Fill 65" fill-rule="evenodd" clip-rule="evenodd" d="M816.34 605.812C815.781 605.812 815.26 605.461 815.069 604.904C811.212 593.673 805.18 569.903 809.958 560.331C810.289 559.666 811.097 559.397 811.76 559.728C812.425 560.06 812.694 560.867 812.363 561.531C808.301 569.67 813.277 591.406 817.611 604.031C817.853 604.733 817.479 605.498 816.777 605.739C816.632 605.788 816.485 605.812 816.34 605.812" fill="#21211D"/><path id="Fill 67" fill-rule="evenodd" clip-rule="evenodd" d="M869.996 551.554C894.031 551.012 891.752 616.309 879.381 618.186C867.23 620.029 843.739 552.147 869.996 551.554" fill="#963716"/><path id="Fill 69" fill-rule="evenodd" clip-rule="evenodd" d="M862.63 597.875C862.068 597.875 861.544 597.52 861.356 596.957C859.396 591.109 853.442 571.149 859.083 559.848C859.414 559.184 860.221 558.914 860.886 559.245C861.55 559.577 861.819 560.384 861.488 561.049C857.373 569.293 860.038 584.562 863.904 596.103C864.141 596.807 863.761 597.569 863.057 597.805C862.916 597.852 862.772 597.875 862.63 597.875" fill="#21211D"/><path id="Fill 71" fill-rule="evenodd" clip-rule="evenodd" d="M413.556 777.578C427.443 799.167 456.076 806.158 478.364 792.984C498.475 781.087 506.729 756.795 499.12 735.582C498.126 732.746 496.821 729.963 495.235 727.275L449.193 649.427L424.159 607.084L321.816 634.499L413.556 777.578Z" fill="#963716"/><path id="Fill 73" fill-rule="evenodd" clip-rule="evenodd" d="M407.905 677.15L455.638 793.291C458.565 800.412 455.165 808.557 448.044 811.484C441.697 814.093 434.536 811.671 430.982 806.073L363.583 700.127C356.155 688.45 359.599 672.961 371.276 665.533C382.954 658.104 398.442 661.548 405.87 673.225C406.651 674.453 407.361 675.852 407.905 677.15" fill="#963716"/><path id="Fill 75" fill-rule="evenodd" clip-rule="evenodd" d="M442.849 696.782L476.19 786.6C478.802 793.635 475.216 801.454 468.181 804.066C462.128 806.313 455.49 803.962 452.093 798.782L399.533 718.68C392.133 707.402 395.277 692.261 406.554 684.862C417.832 677.462 432.972 680.605 440.372 691.883C441.377 693.413 442.227 695.138 442.849 696.782" fill="#963716"/><path id="Fill 77" fill-rule="evenodd" clip-rule="evenodd" d="M460.065 688.649L498.088 775.766C501.003 782.445 497.951 790.223 491.273 793.138C485.505 795.655 478.916 793.715 475.349 788.84L419.19 712.15C411.45 701.581 413.744 686.74 424.313 679C434.882 671.261 449.724 673.555 457.463 684.123C458.49 685.526 459.387 687.122 460.065 688.649" fill="#963716"/><path id="Fill 79" fill-rule="evenodd" clip-rule="evenodd" d="M475.688 686.403L514.575 765.734C517.499 771.699 515.033 778.905 509.068 781.829C503.902 784.361 497.802 782.844 494.362 778.517L439.355 709.381C431.92 700.037 433.468 686.435 442.813 679C452.157 671.566 465.759 673.114 473.193 682.458C474.16 683.673 475.022 685.066 475.688 686.403" fill="#963716"/><path id="Fill 81" fill-rule="evenodd" clip-rule="evenodd" d="M446.884 662.209C446.884 662.209 540.397 708.562 528.26 729.251C518.533 745.833 445.543 697.196 445.543 697.196L446.884 662.209Z" fill="#963716"/><path id="Fill 83" fill-rule="evenodd" clip-rule="evenodd" d="M456.1 803.827C455.59 803.827 455.098 803.544 454.856 803.055L445.937 785.036C445.597 784.35 445.878 783.518 446.564 783.178C447.251 782.84 448.083 783.12 448.423 783.806L457.342 801.825C457.682 802.511 457.401 803.343 456.714 803.683C456.517 803.781 456.307 803.827 456.1 803.827" fill="#21211D"/><path id="Fill 85" fill-rule="evenodd" clip-rule="evenodd" d="M476.918 791.916C476.404 791.916 475.91 791.629 475.67 791.135L467.449 774.232C467.114 773.543 467.4 772.713 468.089 772.378C468.777 772.043 469.608 772.33 469.943 773.019L478.164 789.923C478.499 790.611 478.212 791.441 477.523 791.776C477.328 791.871 477.122 791.916 476.918 791.916" fill="#21211D"/><path id="Fill 87" fill-rule="evenodd" clip-rule="evenodd" d="M498.874 783.374C498.363 783.374 497.872 783.091 497.63 782.602L488.711 764.583C488.371 763.897 488.652 763.065 489.339 762.725C490.025 762.387 490.857 762.667 491.197 763.353L500.116 781.372C500.456 782.058 500.175 782.89 499.488 783.23C499.291 783.328 499.081 783.374 498.874 783.374" fill="#21211D"/><path id="Fill 89" fill-rule="evenodd" clip-rule="evenodd" d="M496.671 727.79C496.2 727.79 495.74 727.55 495.481 727.117L483.725 707.53C483.331 706.873 483.544 706.021 484.201 705.627C484.857 705.234 485.709 705.446 486.103 706.103L497.858 725.689C498.253 726.346 498.04 727.198 497.383 727.592C497.16 727.726 496.914 727.79 496.671 727.79" fill="#21211D"/></g></g></g></g><g id="Hairstyle" transform="translate(596 136) scale(1 1)"><g id="Hairstyle/Baseball Cap"><g id="Group 26"><path id="Fill 1" fill-rule="evenodd" clip-rule="evenodd" d="M159.618 140.46C159.618 143.174 157.418 145.375 154.703 145.375C151.989 145.375 149.789 143.174 149.789 140.46C149.789 137.746 151.989 135.545 154.703 135.545C157.418 135.545 159.618 137.746 159.618 140.46" fill="#21211D"/><path id="Fill 3" fill-rule="evenodd" clip-rule="evenodd" d="M250.853 268.158C242.205 277.17 230.384 278.655 217.892 276.151C186.009 269.759 149.598 237.396 149.598 237.396C142.377 231.733 134.691 223.973 129.843 215.413L129.595 214.961C128.343 212.734 127.309 210.434 126.509 208.119C126.494 208.06 126.465 208.002 126.45 207.944C126.072 206.808 125.752 205.658 125.504 204.508C124.616 200.49 123.888 198.932 123.073 196.181C122.447 194.084 121.777 191.274 120.962 186.135C118.356 169.684 125.228 155.126 139.961 147.177C159.804 136.462 185.514 133.71 206.711 142.751C206.77 142.78 206.828 142.795 206.886 142.824C212.302 145.153 217.165 148.312 221.547 152.098C225.725 155.679 229.481 159.843 232.873 164.356C242.351 176.92 248.989 192.25 254.332 206.051C261.917 225.633 267.013 251.314 250.853 268.158" fill="#963716"/><path id="Fill 5" fill-rule="evenodd" clip-rule="evenodd" d="M205.507 204.425L218.508 315.012C221.076 336.852 205.452 356.639 183.612 359.206C161.772 361.774 141.986 346.151 139.418 324.311C139.15 322.026 139.099 319.543 139.215 317.321L145.762 206.164C146.736 189.623 160.934 177.004 177.475 177.979C192.224 178.847 203.851 190.242 205.507 204.425" fill="#963716"/><path id="Fill 7" fill-rule="evenodd" clip-rule="evenodd" d="M213.863 274.94C213.863 274.94 204.422 273.365 191.915 266.937C190.385 266.151 188.873 268.011 189.975 269.332L216.154 295.852L213.863 274.94Z" fill="#21211D"/><path id="Fill 9" fill-rule="evenodd" clip-rule="evenodd" d="M143.477 243.712C143.477 243.712 146.487 241.917 148.654 238.74C148.985 238.256 149.733 238.394 149.846 238.969C150.618 242.894 151.309 253.28 142.434 261.831L143.477 243.712Z" fill="#21211D"/><path id="Fill 11" fill-rule="evenodd" clip-rule="evenodd" d="M206.886 142.823C206.828 142.794 206.77 142.779 206.711 142.75C185.514 133.709 159.804 136.461 139.96 147.176C125.227 155.125 118.356 169.683 120.962 186.135C122.84 198 123.946 197.403 125.504 204.507C125.751 205.657 126.072 206.808 126.45 207.943C126.465 208.001 126.494 208.06 126.509 208.118L144.153 209.91C146.992 210.798 149.351 212.777 150.734 215.412L154.432 222.443C156.164 225.908 160.255 227.495 163.88 226.098C166.865 224.948 168.699 222.094 168.699 219.081C168.699 218.236 168.553 217.377 168.262 216.547L154.8 178.873" fill="#21211d"/><path id="Fill 13" fill-rule="evenodd" clip-rule="evenodd" d="M153.226 226.489C152.502 238.967 141.8 248.496 129.322 247.772C116.844 247.049 107.316 236.347 108.039 223.869C108.763 211.391 119.465 201.862 131.943 202.586C144.421 203.309 153.949 214.011 153.226 226.489" fill="#963716"/><path id="Fill 15" fill-rule="evenodd" clip-rule="evenodd" d="M138.17 227.877L120.4 220.432C119.658 220.122 119.309 219.269 119.619 218.527C119.93 217.786 120.783 217.436 121.525 217.747L139.295 225.191C140.037 225.502 140.386 226.355 140.076 227.096C139.842 227.654 139.301 227.99 138.732 227.99C138.545 227.99 138.354 227.954 138.17 227.877Z" fill="#21211D"/><path id="Fill 17" fill-rule="evenodd" clip-rule="evenodd" d="M127.687 231.112C127.514 231.112 127.339 231.081 127.168 231.016C126.416 230.729 126.04 229.887 126.327 229.136L128.88 222.456C129.166 221.705 130.009 221.329 130.759 221.615C131.51 221.902 131.886 222.744 131.599 223.495L129.047 230.175C128.826 230.755 128.273 231.112 127.687 231.112" fill="#21211D"/><path id="Fill 19" fill-rule="evenodd" clip-rule="evenodd" d="M221.546 152.097L123.072 196.18C122.504 194.273 121.893 191.784 121.18 187.503C121.107 187.066 121.034 186.615 120.961 186.135C120.583 183.718 120.393 181.258 120.452 178.812C120.554 172.304 122.228 165.884 125.707 160.293C131.138 151.544 139.902 146.972 148.87 142.561C152.466 140.8 156.135 139.14 159.905 137.742C174.624 132.268 190.274 131.846 204.265 139.606C210.365 142.998 216.261 147.54 221.546 152.097" fill="#F73132"/><g id="Group 23"><mask id="mask025a840f1-c94a-459c-9f29-a8291ef0c517" style="mask-type:alpha" maskUnits="userSpaceOnUse" x="121" y="131" width="148" height="67" fill="#ffffff"><path id="Clip 22" fill-rule="evenodd" clip-rule="evenodd" d="M121.617 131H268.874V197.637H121.617V131Z" fill="#ffffff"/></mask><g mask="url(#mask025a840f1-c94a-459c-9f29-a8291ef0c517)"><path id="Fill 21" fill-rule="evenodd" clip-rule="evenodd" d="M123.074 197.637C122.515 197.637 121.982 197.313 121.741 196.769C121.417 196.033 121.75 195.174 122.485 194.849L266.83 131.125C267.565 130.8 268.425 131.133 268.75 131.869C269.074 132.604 268.741 133.464 268.006 133.789L123.661 197.513C123.47 197.597 123.27 197.637 123.074 197.637" fill="#21211D"/></g></g><path id="Fill 24" fill-rule="evenodd" clip-rule="evenodd" d="M137.82 177.356C137.82 178.928 136.903 180.413 135.389 181.112L121.18 187.503C121.107 187.067 121.034 186.615 120.961 186.135C120.583 183.718 120.393 181.258 120.452 178.812L131.982 173.585C134.166 172.595 136.728 173.673 137.558 175.915C137.733 176.395 137.82 176.876 137.82 177.356" fill="#21211d"/></g></g></g><g id="Expression" transform="translate(756 301) scale(1 1)"><g id="Expression/Happy"><g id="Group 23"><path id="Fill 1" fill-rule="evenodd" clip-rule="evenodd" d="M50.9007 44.1389C50.9007 44.1389 44.0397 53.3109 32.3187 53.3369C27.3507 53.3399 21.5077 51.7249 14.9697 47.0359C14.9697 47.0359 20.8867 39.7039 31.1567 38.6269C36.5987 38.0389 43.2487 39.1919 50.9007 44.1389" fill="white"/><path id="Fill 3" fill-rule="evenodd" clip-rule="evenodd" d="M50.9014 44.1389C50.9014 44.1389 44.0404 53.3109 32.3194 53.3369C30.5994 51.4139 29.5074 48.9689 29.2844 46.2049C29.0624 43.4409 29.7684 40.8009 31.1574 38.6269C36.5994 38.0389 43.2494 39.1919 50.9014 44.1389" fill="#21211D"/><g id="Group 7"><mask id="mask0a0e51801-df97-4213-8aa2-c1c4174b3627" style="mask-type:alpha" maskUnits="userSpaceOnUse" x="63" y="35" width="37" height="16" fill="#ffffff"><path id="Clip 6" fill-rule="evenodd" clip-rule="evenodd" d="M63.7363 35.503H99.6671V50.3533H63.7363V35.503Z" fill="#ffffff"/></mask><g mask="url(#mask0a0e51801-df97-4213-8aa2-c1c4174b3627)"><path id="Fill 5" fill-rule="evenodd" clip-rule="evenodd" d="M99.6673 41.1553C99.6673 41.1553 92.8063 50.3273 81.0843 50.3533C76.1173 50.3563 70.2743 48.7413 63.7363 44.0523C63.7363 44.0523 69.6533 36.7203 79.9233 35.6433C85.3653 35.0553 92.0153 36.2083 99.6673 41.1553" fill="white"/></g></g><g id="Group 10"><mask id="mask1a0e51801-df97-4213-8aa2-c1c4174b3627" style="mask-type:alpha" maskUnits="userSpaceOnUse" x="78" y="35" width="22" height="16" fill="#ffffff"><path id="Clip 9" fill-rule="evenodd" clip-rule="evenodd" d="M78.0098 35.503H99.6668V50.3533H78.0098V35.503Z" fill="#ffffff"/></mask><g mask="url(#mask1a0e51801-df97-4213-8aa2-c1c4174b3627)"><path id="Fill 8" fill-rule="evenodd" clip-rule="evenodd" d="M99.667 41.1553C99.667 41.1553 92.806 50.3273 81.084 50.3533C79.365 48.4303 78.273 45.9853 78.05 43.2213C77.828 40.4573 78.534 37.8173 79.923 35.6433C85.365 35.0553 92.015 36.2083 99.667 41.1553" fill="#21211D"/></g></g><path id="Fill 11" fill-rule="evenodd" clip-rule="evenodd" d="M54.724 67.8571C53.866 67.8571 53.169 67.1631 53.166 66.3041C53.163 65.4441 53.858 64.7441 54.719 64.7411L59.747 64.7231C60.788 64.7191 61.745 64.2411 62.372 63.4101C62.999 62.5791 63.197 61.5281 62.915 60.5251L56.734 38.5551C56.502 37.7271 56.984 36.8661 57.813 36.6331C58.64 36.4001 59.501 36.8831 59.734 37.7111L65.915 59.6811C66.463 61.6291 66.078 63.6721 64.859 65.2871C63.641 66.9021 61.781 67.8321 59.758 67.8391L54.73 67.8571H54.724Z" fill="#21211D"/><g id="Group 15"><mask id="mask2a0e51801-df97-4213-8aa2-c1c4174b3627" style="mask-type:alpha" maskUnits="userSpaceOnUse" x="14" y="23" width="35" height="10" fill="#ffffff"><path id="Clip 14" fill-rule="evenodd" clip-rule="evenodd" d="M14 23.8546H48.2887V32.1197H14V23.8546Z" fill="#ffffff"/></mask><g mask="url(#mask2a0e51801-df97-4213-8aa2-c1c4174b3627)"><path id="Fill 13" fill-rule="evenodd" clip-rule="evenodd" d="M15.5596 32.1197C15.0866 32.1197 14.6196 31.9057 14.3136 31.4987C13.7956 30.8117 13.9336 29.8347 14.6216 29.3167C15.2176 28.8667 29.4556 18.4067 47.4436 27.6697C48.2086 28.0627 48.5096 29.0027 48.1156 29.7677C47.7216 30.5327 46.7816 30.8337 46.0166 30.4397C29.7506 22.0637 16.6266 31.7077 16.4956 31.8057C16.2156 32.0177 15.8856 32.1197 15.5596 32.1197" fill="#21211d"/></g></g><path id="Fill 16" fill-rule="evenodd" clip-rule="evenodd" d="M66.4596 29.5377C65.9616 29.5377 65.4726 29.2997 65.1706 28.8587C64.6866 28.1487 64.8676 27.1817 65.5766 26.6957C66.1926 26.2727 80.8846 16.4607 98.4396 26.5187C99.1866 26.9467 99.4446 27.8987 99.0166 28.6457C98.5886 29.3917 97.6366 29.6507 96.8906 29.2227C81.0746 20.1607 67.8886 28.8917 67.3346 29.2677C67.0666 29.4507 66.7616 29.5377 66.4596 29.5377" fill="#21211d"/><path id="Fill 18" fill-rule="evenodd" clip-rule="evenodd" d="M52.1547 72.5896V76.3166C52.1547 77.0736 51.9947 77.8016 51.6747 78.4426C50.8887 80.1456 49.1557 81.3246 47.1467 81.3246C44.3807 81.3246 42.1387 79.0826 42.1387 76.3166V72.5896C42.1387 71.4246 43.0847 70.4786 44.2497 70.4786H50.0437C51.2087 70.4786 52.1547 71.4246 52.1547 72.5896" fill="#21211D"/><g id="Group 22"><mask id="mask3a0e51801-df97-4213-8aa2-c1c4174b3627" style="mask-type:alpha" maskUnits="userSpaceOnUse" x="42" y="74" width="10" height="8" fill="#ffffff"><path id="Clip 21" fill-rule="evenodd" clip-rule="evenodd" d="M42.1387 74.9771H51.6747V81.3246H42.1387V74.9771Z" fill="#ffffff"/></mask><g mask="url(#mask3a0e51801-df97-4213-8aa2-c1c4174b3627)"><path id="Fill 20" fill-rule="evenodd" clip-rule="evenodd" d="M51.6747 78.4421C50.8887 80.1451 49.1557 81.3251 47.1467 81.3251C44.3807 81.3251 42.1387 79.0831 42.1387 76.3161V75.5451C43.0557 75.1811 44.0457 74.9771 45.0797 74.9771C47.8167 74.9771 50.2337 76.3461 51.6747 78.4421" fill="#F74BAD"/></g></g></g></g></g><g id="Facial Hair" transform="translate(596 136) scale(1 1)"><g id="Facial Hair/None"><path id="Path 5 Copy" opacity="0.01" d="M194.243 232.218C199.141 228.68 204.97 228.076 211.402 230.327C218.029 232.645 222.561 234.667 224.866 242.113C225.356 243.696 224.47 245.376 222.887 245.866C221.305 246.356 219.624 245.47 219.134 243.887C217.372 238.193 214.178 237.654 209.421 235.99C204.761 234.36 200.983 234.751 197.757 237.082C196.414 238.052 194.539 237.75 193.569 236.407C192.598 235.064 192.9 233.189 194.243 232.218Z" fill="#21211d"/></g></g><g id="Accesories" transform="translate(722 314) scale(148 52)"><g id="Accesories/None" stroke="none" stroke-width="1" fill="none" fill-rule="evenodd" fill-opacity="0"/></g></g></g></g></svg>